<mxfile host="0e59488a-224b-4362-8985-333559253575" modified="2020-09-02T01:43:04.807Z" agent="5.0 (Macintosh; Intel Mac OS X 10_15_6) AppleWebKit/537.36 (KHTML, like Gecko) Code/1.48.2 Chrome/78.0.3904.130 Electron/7.3.2 Safari/537.36" etag="5IjaCXYdB2hz1eKWzUlr" version="13.1.3">
    <diagram id="6hGFLwfOUW9BJ-s0fimq" name="Page-1">
        <mxGraphModel dx="816" dy="526" grid="1" gridSize="10" guides="1" tooltips="1" connect="1" arrows="1" fold="1" page="1" pageScale="1" pageWidth="827" pageHeight="1169" math="0" shadow="0">
            <root>
                <mxCell id="0"/>
                <mxCell id="1" parent="0"/>
                <mxCell id="12" value="«SERVER»&lt;br&gt;&lt;b&gt;Component&lt;/b&gt;" style="html=1;dropTarget=0;" vertex="1" parent="1">
                    <mxGeometry x="40" y="70" width="430" height="450" as="geometry"/>
                </mxCell>
                <mxCell id="13" value="" style="shape=component;jettyWidth=8;jettyHeight=4;" vertex="1" parent="12">
                    <mxGeometry x="1" width="20" height="20" relative="1" as="geometry">
                        <mxPoint x="-27" y="7" as="offset"/>
                    </mxGeometry>
                </mxCell>
                <mxCell id="3" value="controller" style="swimlane;" vertex="1" parent="1">
                    <mxGeometry x="100" y="340" width="130" height="140" as="geometry"/>
                </mxCell>
                <mxCell id="4" value="Services" style="swimlane;" vertex="1" parent="1">
                    <mxGeometry x="280" y="340" width="120" height="150" as="geometry"/>
                </mxCell>
                <mxCell id="7" value="Model?" style="swimlane;startSize=23;" vertex="1" parent="1">
                    <mxGeometry x="180" y="90" width="140" height="170" as="geometry"/>
                </mxCell>
                <mxCell id="16" value="IN" style="html=1;" vertex="1" parent="1">
                    <mxGeometry x="440" y="190" width="60" height="55" as="geometry"/>
                </mxCell>
                <mxCell id="17" value="«Persistence»&lt;br&gt;&lt;b&gt;Component&lt;/b&gt;" style="html=1;dropTarget=0;" vertex="1" parent="1">
                    <mxGeometry x="550" y="70" width="250" height="450" as="geometry"/>
                </mxCell>
                <mxCell id="18" value="" style="shape=component;jettyWidth=8;jettyHeight=4;" vertex="1" parent="17">
                    <mxGeometry x="1" width="20" height="20" relative="1" as="geometry">
                        <mxPoint x="-27" y="7" as="offset"/>
                    </mxGeometry>
                </mxCell>
                <mxCell id="19" value="OUT" style="html=1;" vertex="1" parent="1">
                    <mxGeometry x="530" y="190" width="60" height="55" as="geometry"/>
                </mxCell>
                <mxCell id="20" value="OUT" style="html=1;" vertex="1" parent="1">
                    <mxGeometry x="440" y="300" width="60" height="55" as="geometry"/>
                </mxCell>
                <mxCell id="21" value="IN" style="html=1;" vertex="1" parent="1">
                    <mxGeometry x="530" y="300" width="60" height="55" as="geometry"/>
                </mxCell>
                <mxCell id="22" value="DataBase" style="swimlane;startSize=23;" vertex="1" parent="1">
                    <mxGeometry x="620" y="350" width="135" height="120" as="geometry"/>
                </mxCell>
            </root>
        </mxGraphModel>
    </diagram>
</mxfile>